<?xml version="1.0" standalone="no"?><!DOCTYPE svg PUBLIC "-//W3C//DTD SVG 1.1//EN" "http://www.w3.org/Graphics/SVG/1.1/DTD/svg11.dtd"><svg t="1713954410367" class="icon" viewBox="0 0 1024 1024" version="1.1" xmlns="http://www.w3.org/2000/svg" p-id="937" data-spm-anchor-id="a313x.collections_detail.0.i1.7fd13a81ukSA2Q" xmlns:xlink="http://www.w3.org/1999/xlink" width="200" height="200"><path d="M102.4 409.6a409.6 409.6 0 0 0 409.6 409.6c2.1504 0 4.3008-0.1536 6.4-0.4096 2.048 0.256 4.2496 0.4096 6.4 0.4096H768a153.6 153.6 0 0 1 153.6 153.6 51.2 51.2 0 1 0 102.4 0 256 256 0 0 0-256-256h-243.2a51.712 51.712 0 0 0-6.4 0.4096A51.712 51.712 0 0 0 512 716.8a307.2 307.2 0 1 1 307.2-307.2 299.3664 299.3664 0 0 1-58.624 180.5824 51.2 51.2 0 0 0 82.7904 60.2624A399.2576 399.2576 0 0 0 921.6 409.6 409.6 409.6 0 1 0 102.4 409.6z m527.872 129.4336a153.6 153.6 0 0 1-217.2928-2.2528 51.2 51.2 0 0 1 73.216-71.68 51.2 51.2 0 0 0 72.3968 0.768 51.2 51.2 0 0 1 71.68 73.216zM0 921.6v51.2a51.2 51.2 0 1 0 102.4 0v-51.2a102.4 102.4 0 0 1 102.4-102.4 51.2 51.2 0 1 0 0-102.4 204.8 204.8 0 0 0-204.8 204.8z" fill="#000000" p-id="938"></path></svg>